<svg xmlns="http://www.w3.org/2000/svg" width="13.398" height="17.864" viewBox="0 0 13.398 17.864">
  <g id="fi-rr-user" transform="translate(-3)">
    <path id="Path_997" data-name="Path 997" d="M10.466,8.932A4.466,4.466,0,1,0,6,4.466a4.466,4.466,0,0,0,4.466,4.466Zm0-7.444A2.977,2.977,0,1,1,7.489,4.466a2.977,2.977,0,0,1,2.977-2.977Z" transform="translate(-0.767)" fill="#22c7b8"/>
    <path id="Path_998" data-name="Path 998" d="M9.7,14A6.707,6.707,0,0,0,3,20.7a.744.744,0,0,0,1.489,0,5.21,5.21,0,1,1,10.421,0,.744.744,0,0,0,1.489,0A6.707,6.707,0,0,0,9.7,14Z" transform="translate(0 -3.579)" fill="#22c7b8"/>
  </g>
</svg>
