<svg id="fi-rr-lock" xmlns="http://www.w3.org/2000/svg" width="12.562" height="15.075" viewBox="0 0 12.562 15.075">
  <path id="Path_867" data-name="Path 867" d="M12.678,5.291V4.4a4.4,4.4,0,1,0-8.793,0v.894A3.141,3.141,0,0,0,2,8.165v3.769a3.144,3.144,0,0,0,3.141,3.141h6.281a3.144,3.144,0,0,0,3.141-3.141V8.165A3.141,3.141,0,0,0,12.678,5.291ZM5.141,4.4a3.141,3.141,0,1,1,6.281,0v.628H5.141Zm8.165,7.537a1.884,1.884,0,0,1-1.884,1.884H5.141a1.884,1.884,0,0,1-1.884-1.884V8.165A1.884,1.884,0,0,1,5.141,6.281h6.281a1.884,1.884,0,0,1,1.884,1.884Z" transform="translate(-2)" fill="#22c7b8"/>
  <path id="Path_868" data-name="Path 868" d="M11.628,14a.628.628,0,0,0-.628.628v1.256a.628.628,0,0,0,1.256,0V14.628A.628.628,0,0,0,11.628,14Z" transform="translate(-5.347 -5.207)" fill="#22c7b8"/>
</svg>
