<svg xmlns="http://www.w3.org/2000/svg" width="15.955" height="13.684" viewBox="0 0 15.955 13.684">
  <path id="fi-rr-undo" d="M15.289,17.1a.665.665,0,0,1-.665-.665,3.993,3.993,0,0,0-3.989-3.989H6.76V13.5a1.33,1.33,0,0,1-2.269.94L.583,10.532a1.994,1.994,0,0,1,0-2.82L4.491,3.8a1.33,1.33,0,0,1,2.269.94V5.8H9.971a5.989,5.989,0,0,1,5.983,5.983v4.653A.665.665,0,0,1,15.289,17.1ZM5.431,4.744,1.522,8.652a.665.665,0,0,0,0,.94L5.431,13.5V11.781a.665.665,0,0,1,.665-.665h4.54a5.307,5.307,0,0,1,3.989,1.8V11.781A4.659,4.659,0,0,0,9.971,7.127H6.1a.665.665,0,0,1-.665-.665Z" transform="translate(0.001 -3.414)" fill="#22c7b8"/>
</svg>
