<svg xmlns="http://www.w3.org/2000/svg" width="18.272" height="18.271" viewBox="0 0 18.272 18.271">
  <path id="fi-rr-pencil" d="M17.462.9a2.771,2.771,0,0,0-3.915,0L1.119,13.325A3.8,3.8,0,0,0,0,16.027V17.6a.764.764,0,0,0,.764.764H2.333a3.8,3.8,0,0,0,2.7-1.119L17.462,4.812a2.771,2.771,0,0,0,0-3.915ZM3.954,16.16a2.309,2.309,0,0,1-1.621.671h-.8v-.8A2.277,2.277,0,0,1,2.2,14.406l9.431-9.431,1.757,1.757ZM16.381,3.732,14.466,5.648,12.709,3.894l1.916-1.916a1.241,1.241,0,0,1,1.754,1.757Z" transform="translate(0 -0.088)" fill="#22c7b8"/>
</svg>
