<svg xmlns="http://www.w3.org/2000/svg" width="22" height="21" viewBox="0 0 22 21">
  <g id="Group_333" data-name="Group 333" transform="translate(0.4 -0.12)">
    <rect id="Boundary" width="22" height="21" transform="translate(-0.4 0.12)" fill="none"/>
    <g id="fi-rr-eye" transform="translate(0 2.64)">
      <path id="Path_800" data-name="Path 800" d="M20.47,8.605a11.65,11.65,0,0,0-9.915-5.95A11.65,11.65,0,0,0,.641,8.605a4.317,4.317,0,0,0,0,4.541,11.65,11.65,0,0,0,9.915,5.95,11.65,11.65,0,0,0,9.915-5.95A4.317,4.317,0,0,0,20.47,8.605Zm-1.5,3.62a9.953,9.953,0,0,1-8.415,5.112,9.953,9.953,0,0,1-8.415-5.112,2.567,2.567,0,0,1,0-2.7,9.953,9.953,0,0,1,8.415-5.112,9.945,9.945,0,0,1,8.415,5.112A2.567,2.567,0,0,1,18.971,12.225Z" transform="translate(0.004 -2.655)" fill="#22c7b8"/>
      <path id="Path_801" data-name="Path 801" d="M11.4,7a4.4,4.4,0,1,0,4.4,4.4A4.4,4.4,0,0,0,11.4,7Zm0,7.037A2.639,2.639,0,1,1,14.037,11.4,2.639,2.639,0,0,1,11.4,14.037Z" transform="translate(-0.838 -3.178)" fill="#22c7b8"/>
    </g>
  </g>
</svg>
