<svg xmlns="http://www.w3.org/2000/svg" width="21" height="21" viewBox="0 0 21 21">
  <g id="Group_4535" data-name="Group 4535" transform="translate(-324 -409)">
    <rect id="Rectangle_13" data-name="Rectangle 13" width="21" height="21" rx="10.5" transform="translate(324 409)" fill="#ef7416"/>
    <path id="fi-rr-cross-small" d="M16.838,5.972h0a.905.905,0,0,0-1.28,0L11.4,10.125,7.253,5.972a.905.905,0,0,0-1.28,0h0a.905.905,0,0,0,0,1.28L10.125,11.4,5.972,15.557a.905.905,0,0,0,0,1.28h0a.905.905,0,0,0,1.28,0L11.4,12.685l4.152,4.152a.905.905,0,0,0,1.28,0h0a.905.905,0,0,0,0-1.28L12.685,11.4l4.152-4.152A.905.905,0,0,0,16.838,5.972Z" transform="translate(323.21 408.21)" fill="#fff"/>
  </g>
</svg>
